<svg xmlns="http://www.w3.org/2000/svg" width="100" height="100" viewBox="0 0 100 100">
  <defs>
    <pattern id="esotericPattern" x="0" y="0" width="100" height="100" patternUnits="userSpaceOnUse">
      <!-- Fondo negro -->
      <rect width="100" height="100" fill="#000000"/>
      
      <!-- Estrellas -->
      <g fill="#333333" opacity="0.3">
        <!-- Estrella 1 -->
        <path d="M15 20 L17 26 L23 26 L18 30 L20 36 L15 32 L10 36 L12 30 L7 26 L13 26 Z"/>
        <!-- Estrella 2 -->
        <path d="M75 15 L76 18 L79 18 L77 20 L78 23 L75 21 L72 23 L73 20 L71 18 L74 18 Z"/>
        <!-- Estrella 3 -->
        <path d="M85 65 L87 71 L93 71 L88 75 L90 81 L85 77 L80 81 L82 75 L77 71 L83 71 Z"/>
        <!-- Estrella 4 -->
        <path d="M25 75 L26 78 L29 78 L27 80 L28 83 L25 81 L22 83 L23 80 L21 78 L24 78 Z"/>
      </g>
      
      <!-- Lunas -->
      <g fill="#444444" opacity="0.25">
        <!-- Luna creciente 1 -->
        <path d="M45 10 C40 10 36 14 36 19 C36 24 40 28 45 28 C42 28 40 24 40 19 C40 14 42 10 45 10 Z"/>
        <!-- Luna creciente 2 -->
        <path d="M65 85 C60 85 56 89 56 94 C56 99 60 103 65 103 C62 103 60 99 60 94 C60 89 62 85 65 85 Z"/>
      </g>
      
      <!-- Cristales/Diamantes -->
      <g fill="#555555" opacity="0.2">
        <!-- Cristal 1 -->
        <path d="M30 45 L35 40 L40 45 L35 50 Z"/>
        <path d="M35 40 L35 35 L40 45 Z" fill="#666666"/>
        <path d="M35 40 L30 45 L35 35 Z" fill="#777777"/>
        
        <!-- Cristal 2 -->
        <path d="M70 30 L73 27 L76 30 L73 33 Z"/>
        <path d="M73 27 L73 25 L76 30 Z" fill="#666666"/>
        <path d="M73 27 L70 30 L73 25 Z" fill="#777777"/>
      </g>
      
      <!-- Puntos místicos -->
      <g fill="#666666" opacity="0.15">
        <circle cx="20" cy="60" r="1"/>
        <circle cx="55" cy="25" r="1.5"/>
        <circle cx="80" cy="45" r="1"/>
        <circle cx="10" cy="85" r="1"/>
        <circle cx="90" cy="10" r="1.5"/>
        <circle cx="50" cy="90" r="1"/>
      </g>
      
      <!-- Líneas místicas sutiles -->
      <g stroke="#333333" stroke-width="0.5" fill="none" opacity="0.1">
        <path d="M5 5 Q50 25 95 5"/>
        <path d="M5 95 Q50 75 95 95"/>
        <path d="M5 50 Q25 25 50 50 Q75 75 95 50"/>
      </g>
    </pattern>
  </defs>
  
  <rect width="100" height="100" fill="url(#esotericPattern)"/>
</svg>